<svg width="424" height="362" viewBox="0 0 424 362" fill="none" xmlns="http://www.w3.org/2000/svg">
<path fill-rule="evenodd" clip-rule="evenodd" d="M63.1572 212.533L62.9909 212.699C51.8243 201.199 27.091 175.3 17.491 163.7C7.89099 152.1 2.49096 128.2 0.990945 117.7C-2.84239 95.8662 2.39095 44.5995 53.9909 14.1995C105.591 -16.2005 156.491 9.19949 175.491 25.6995L211.827 61.5445L212.249 61.1229L212.914 61.7881L253.491 21.6998C278.491 2.03315 342.691 -22.0002 399.491 39.1998C421.158 64.8664 447.891 131.6 381.491 193.2L211.991 361.2L113.742 262.951L113.658 263.034L63.1572 212.533ZM162.243 111.452L161.991 111.699L134.491 84.6993C112.891 62.6993 89.491 73.5326 80.491 81.6993C63.2909 102.099 73.3243 122.533 80.491 130.199L109.49 159.198L109.613 159.075L163.615 213.077L163.489 213.203L211.991 262.2L343.991 130.2C351.824 121.2 362.191 98.5998 340.991 80.1998C319.791 61.7998 298.491 74.5331 290.491 83.1998L262.991 112.2L262.823 112.037L212.825 162.034L162.243 111.452Z" fill="white"/>
</svg>
