<svg width="424" height="362" viewBox="0 0 424 362" fill="none" xmlns="http://www.w3.org/2000/svg">
<path d="M162.991 212.7L112.991 262.2L211.991 361.2L381.491 193.2C447.891 131.6 421.158 64.8665 399.491 39.1999C342.691 -22.0001 278.491 2.03328 253.491 21.6999L211.991 62.6999L262.991 112.2L290.491 83.1999C298.491 74.5333 319.791 61.7999 340.991 80.1999C362.191 98.5999 351.824 121.2 343.991 130.2L211.991 262.2L162.991 212.7Z" fill="#37BFF0"/>
<rect x="212.249" y="61.123" width="71.7629" height="70.9472" transform="rotate(45 212.249 61.123)" fill="#FAF9F9"/>
<rect x="109.613" y="159.075" width="76.371" height="70.6499" transform="rotate(45 109.613 159.075)" fill="#FAF9F9"/>
<path d="M112.991 162.699L62.9909 212.699C51.8243 201.2 27.091 175.3 17.491 163.7C7.89097 152.1 2.49094 128.2 0.990925 117.7C-2.84241 95.8663 2.39093 44.5996 53.9909 14.1996C105.591 -16.2004 156.491 9.19962 175.491 25.6996L212.491 62.1996L161.991 111.7L134.491 84.6994C112.891 62.6994 89.4909 73.5328 80.4909 81.6994C63.2909 102.099 73.3243 122.533 80.4909 130.199L112.991 162.699Z" fill="#DE2737"/>
</svg>
